<svg version="1.1" xmlns="http://www.w3.org/2000/svg" xmlns:xlink="http://www.w3.org/1999/xlink" width="25px" height="25px" viewBox="0,0,256,256"><g fill="#9ca3af" fill-rule="nonzero" stroke="none" stroke-width="1" stroke-linecap="butt" stroke-linejoin="miter" stroke-miterlimit="10" stroke-dasharray="" stroke-dashoffset="0" font-family="none" font-weight="none" font-size="none" text-anchor="none" style="mix-blend-mode: normal"><g transform="scale(10.24,10.24)"><path d="M18.3,0.5h-11.6c-1.7,0 -3.1,1.4 -3.1,3.1v17.9c0,1.7 1.4,3 3.1,3h11.7c1.7,0 3,-1.4 3,-3v-17.9c0,-1.7 -1.4,-3.1 -3.1,-3.1zM8.5,21.3c-0.5,0 -1,-0.5 -1,-1c0,-0.5 0.5,-1 1,-1c0.5,0 1,0.5 1,1c0,0.5 -0.5,1 -1,1zM8.5,17.3c-0.5,0 -1,-0.5 -1,-1c0,-0.5 0.5,-1 1,-1c0.5,0 1,0.5 1,1c0,0.5 -0.5,1 -1,1zM8.5,13.3c-0.5,0 -1,-0.5 -1,-1c0,-0.5 0.5,-1 1,-1c0.5,0 1,0.5 1,1c0,0.5 -0.5,1 -1,1zM12.5,21.3c-0.5,0 -1,-0.5 -1,-1c0,-0.5 0.5,-1 1,-1c0.5,0 1,0.5 1,1c0,0.5 -0.5,1 -1,1zM12.5,17.3c-0.5,0 -1,-0.5 -1,-1c0,-0.5 0.5,-1 1,-1c0.5,0 1,0.5 1,1c0,0.5 -0.5,1 -1,1zM12.5,13.3c-0.5,0 -1,-0.5 -1,-1c0,-0.5 0.5,-1 1,-1c0.5,0 1,0.5 1,1c0,0.5 -0.5,1 -1,1zM16.5,21.3c-0.5,0 -1,-0.5 -1,-1c0,-0.5 0.5,-1 1,-1c0.5,0 1,0.5 1,1c0,0.5 -0.5,1 -1,1zM16.5,17.3c-0.5,0 -1,-0.5 -1,-1c0,-0.5 0.5,-1 1,-1c0.5,0 1,0.5 1,1c0,0.5 -0.5,1 -1,1zM16.5,13.3c-0.5,0 -1,-0.5 -1,-1c0,-0.5 0.5,-1 1,-1c0.5,0 1,0.5 1,1c0,0.5 -0.5,1 -1,1zM19.4,8.2c0,0.4 -0.3,0.8 -0.8,0.8h-12.2c-0.4,-0.1 -0.8,-0.4 -0.8,-0.8v-3.9c0,-0.4 0.3,-0.8 0.8,-0.8h12.2c0.4,0 0.8,0.3 0.8,0.8z"></path></g></g></svg>