<!DOCTYPE svg PUBLIC "-//W3C//DTD SVG 1.1//EN" "http://www.w3.org/Graphics/SVG/1.1/DTD/svg11.dtd">
<!-- Uploaded to: SVG Repo, www.svgrepo.com, Transformed by: SVG Repo Mixer Tools -->
<svg version="1.1" id="_x32_" xmlns="http://www.w3.org/2000/svg" xmlns:xlink="http://www.w3.org/1999/xlink" width="800px" height="800px" viewBox="0 0 512.00 512.00" xml:space="preserve" fill="#9CA3AF" stroke="#9CA3AF" stroke-width="0.00512">
<g id="SVGRepo_bgCarrier" stroke-width="0"/>
<g id="SVGRepo_tracerCarrier" stroke-linecap="round" stroke-linejoin="round" stroke="#CCCCCC" stroke-width="3.072"/>
<g id="SVGRepo_iconCarrier"> <style type="text/css">  .st0{fill:#9CA3AF;}  </style> <g> <path class="st0" d="M495.565,137.113c-6.203,0-12.422-2.484-24.516-3.031C432.237,81.238,364.002,51.91,294.143,56.769 c-67.359,4.703-106.328,23.734-136.781,47.078C114.643,73.16,64.956,79.035,64.956,79.035l28.734,81.391 c-23.422,19.453-51.172,36.766-93.688,46.656l40.828,116.906c0,0,41.609,28.078,99.641,53.016l29.328,78.75h64.031v-48.14 c19.953,4.265,40.266,6.968,60.313,7.328c27.078,0.469,53.906-3.688,78.875-11.921v52.734h64.032l51.516-149.937 c9.75-20.875,15.281-44.281,15.281-69.969c0-21.563-3.688-41.641-10.375-59.969c2-1.875,4.484-3.844,7.656-5.891 C520.612,157.457,510.878,137.113,495.565,137.113z M301.315,362.722c-69.813,0-126.406-56.594-126.406-126.422 c0-69.797,56.594-126.406,126.406-126.406S427.722,166.503,427.722,236.3C427.722,306.128,371.127,362.722,301.315,362.722z"/> <path class="st0" d="M301.315,141.503c-52.266,0-94.813,42.531-94.813,94.797c0,52.281,42.547,94.813,94.813,94.813 s94.813-42.531,94.813-94.813C396.127,184.035,353.581,141.503,301.315,141.503z M329.596,201.925l-2.922-1.234 c-4.828-2.047-9.844-3.078-14.922-3.078c-14.672,0-28.156,8.516-34.625,21.547h48.953l-3.016,14.625h-49.922 c-0.063,0.828-0.094,1.672-0.094,2.516c0,2.078,0.188,4.219,0.531,6.359h47.656l-3.016,14.609h-38.922 c7.094,11.047,19.172,17.75,32.453,17.75c4.5,0,9.016-0.844,13.406-2.469l3.516-1.313V291.8l-1.922,0.531 c-4.938,1.313-9.984,1.969-15,1.969c-23.891,0-45.375-14.797-54.016-37.031h-12.359V242.66h8.766 c-0.266-2.234-0.406-4.328-0.406-6.359c0-0.828,0.031-1.688,0.063-2.516h-8.422V219.16h11.031 c7.484-24.156,29.969-40.859,55.344-40.859c6.734,0,13.359,1.188,19.703,3.5l2.094,0.781L329.596,201.925z"/> </g> </g>
</svg>